<?xml version="1.0" standalone="no"?>
<!DOCTYPE svg PUBLIC "-//W3C//DTD SVG 20010904//EN"
 "http://www.w3.org/TR/2001/REC-SVG-20010904/DTD/svg10.dtd">
<svg version="1.0" xmlns="http://www.w3.org/2000/svg"
 width="600.000000pt" height="195.000000pt" viewBox="0 0 600.000000 195.000000"
 preserveAspectRatio="xMidYMid meet">
<metadata>
Created by potrace 1.10, written by Peter Selinger 2001-2011
</metadata>
<g transform="translate(0.000000,195.000000) scale(0.100000,-0.100000)"
fill="#000000" stroke="none">
<path d="M223 1849 c-55 -13 -128 -84 -137 -134 -4 -19 -7 -366 -7 -770 0
-716 1 -735 20 -774 26 -51 62 -78 126 -96 45 -13 154 -15 771 -13 l720 3 49
25 c38 20 55 37 75 75 l25 49 3 721 c2 505 -1 733 -8 765 -15 58 -51 105 -103
133 l-42 22 -725 2 c-435 1 -742 -3 -767 -8z m1481 -122 c15 -10 37 -38 47
-63 19 -42 20 -69 17 -721 -3 -736 -1 -706 -58 -758 -22 -20 -38 -20 -724 -23
-671 -2 -703 -2 -736 16 -19 11 -44 35 -55 53 -19 33 -20 52 -20 731 0 689 0
697 21 725 11 15 36 36 55 46 32 16 81 17 729 15 656 -3 698 -4 724 -21z"/>
<path d="M682 1540 c-36 -9 -97 -65 -112 -105 -13 -34 -13 -818 -1 -862 11
-37 68 -93 114 -110 41 -15 565 -17 620 -2 52 14 102 61 123 114 16 42 16 48
0 90 -21 53 -71 100 -123 114 -21 6 -108 11 -194 11 -112 0 -160 4 -173 13
-29 21 -35 85 -36 350 0 273 -4 296 -61 345 -57 49 -90 58 -157 42z m130 -78
c12 -12 11 -510 -1 -657 -4 -49 -5 -96 -3 -104 4 -11 25 -12 101 -7 53 3 174
7 269 8 142 2 175 0 183 -12 5 -8 8 -44 7 -80 l-3 -65 -295 3 c-162 2 -321 -1
-353 -6 -36 -5 -60 -5 -64 1 -7 12 -8 911 0 923 8 13 146 9 159 -4z"/>
<path d="M2306 979 c3 -475 6 -865 9 -867 2 -2 14 -2 27 1 l23 6 -2 858 -2
858 -30 3 -29 3 4 -862z"/>
<path d="M4354 1279 c-10 -16 -5 -427 6 -474 12 -55 47 -86 99 -88 26 -1 45 4
51 12 15 25 -1 41 -41 41 -71 0 -75 20 -70 329 2 136 0 176 -11 182 -18 12
-26 11 -34 -2z"/>
<path d="M2784 1243 c3 -21 6 -131 6 -245 l0 -207 31 -36 c28 -31 36 -35 81
-35 46 0 49 2 46 23 -2 17 -11 23 -43 27 -62 8 -65 22 -65 270 1 118 1 221 0
228 0 7 -13 12 -31 12 -31 0 -31 -1 -25 -37z"/>
<path d="M4601 1221 c-12 -8 -13 -18 -2 -68 19 -82 20 -85 32 -78 6 4 8 13 5
21 -3 7 2 34 10 59 13 36 14 49 4 60 -14 17 -29 19 -49 6z"/>
<path d="M5061 1097 c-7 -9 -8 -24 -1 -46 5 -18 6 -89 1 -169 -4 -75 -6 -143
-3 -149 2 -7 15 -13 28 -13 28 0 27 -7 24 146 -1 78 2 129 10 143 16 31 69 61
107 61 97 0 118 -43 109 -222 l-7 -128 25 0 c13 0 26 6 29 13 2 6 2 75 0 152
-6 188 -18 211 -108 217 -64 4 -96 -3 -112 -22 -20 -23 -53 -27 -53 -5 0 22
-35 38 -49 22z"/>
<path d="M5630 1101 c-32 -5 -56 -17 -84 -43 l-40 -36 0 -94 c-1 -81 2 -98 23
-132 33 -53 75 -76 138 -76 28 0 64 5 80 11 90 34 135 149 101 261 -15 50 -78
108 -117 108 -16 0 -35 2 -43 4 -7 2 -33 0 -58 -3z m98 -45 c39 -20 57 -45 71
-96 25 -94 -22 -183 -105 -196 -53 -8 -90 9 -122 56 -21 31 -23 43 -19 108 3
59 9 77 28 98 41 45 97 56 147 30z"/>
<path d="M3042 1077 c-12 -13 -19 -27 -15 -30 10 -10 48 -8 59 3 5 5 37 13 69
16 52 5 64 3 88 -16 17 -13 31 -38 38 -66 14 -55 28 -46 31 20 2 42 -1 51 -25
72 -26 22 -37 24 -126 24 -89 0 -99 -2 -119 -23z"/>
<path d="M3502 1087 c-75 -42 -95 -218 -33 -293 49 -60 152 -74 205 -28 34 30
31 39 -8 19 -62 -33 -125 -11 -170 58 -42 66 -29 148 34 201 35 29 78 33 142
14 48 -14 58 -31 69 -120 7 -57 6 -74 -8 -94 -14 -23 -14 -26 1 -43 38 -41 2
-147 -60 -176 -39 -18 -124 -12 -161 12 -26 17 -68 14 -68 -6 0 -8 20 -25 45
-38 39 -20 56 -23 122 -20 88 4 140 31 158 82 6 17 13 123 16 238 l4 207 -25
0 c-14 0 -29 -8 -35 -20 -6 -11 -17 -20 -25 -20 -8 0 -19 9 -25 20 -9 17 -21
20 -83 20 -40 -1 -82 -6 -95 -13z"/>
<path d="M3952 1084 c-26 -18 -29 -44 -4 -44 9 0 35 7 57 15 76 27 143 14 164
-32 15 -33 14 -83 -1 -83 -7 0 -5 -5 5 -11 28 -17 40 2 41 67 0 50 -3 59 -27
80 -25 22 -38 24 -120 24 -68 0 -99 -4 -115 -16z"/>
<path d="M4522 1094 c-22 -10 -2 -24 34 -24 24 0 34 4 32 13 -5 13 -44 19 -66
11z"/>
<path d="M4675 1090 c-20 -8 -20 -8 0 -16 11 -4 40 -8 65 -9 35 0 45 4 48 18
3 14 -4 17 -45 16 -26 0 -57 -4 -68 -9z"/>
<path d="M4616 1025 c-3 -9 -8 -60 -11 -113 -8 -145 22 -192 127 -192 36 0 50
4 57 19 13 24 -2 31 -65 31 -60 0 -72 21 -85 155 -5 60 -11 111 -13 112 -2 2
-6 -3 -10 -12z"/>
<path d="M3086 921 c-62 -22 -79 -44 -72 -96 3 -30 14 -48 42 -72 32 -28 45
-33 91 -33 40 0 58 5 73 20 26 26 44 25 63 -2 26 -40 38 -11 31 75 -4 42 -11
77 -15 77 -5 0 -9 -9 -9 -20 0 -56 -50 -101 -121 -108 -57 -5 -93 13 -103 53
-13 53 30 87 127 100 26 3 45 10 42 16 -10 14 -95 9 -149 -10z"/>
<path d="M4030 930 c-8 -5 -28 -10 -43 -10 -35 0 -77 -41 -77 -75 0 -76 53
-125 136 -127 37 0 51 5 75 28 l31 29 24 -30 c17 -21 26 -27 34 -19 13 13 13
26 4 107 -6 54 -24 81 -24 37 0 -89 -143 -148 -205 -85 -60 59 -12 111 122
132 18 3 30 9 27 14 -7 12 -85 11 -104 -1z"/>
<path d="M4873 794 c-18 -8 -16 -49 1 -64 8 -6 25 -10 38 -8 19 2 23 9 23 38
0 30 -3 35 -25 37 -14 1 -31 -1 -37 -3z"/>
</g>
</svg>
